STARTFONT 2.1
FONT -FontForge-Helvetica Neue-Bold-R-Normal--18-170-75-75-P-96-ISO10646-1
SIZE 17 75 75
FONTBOUNDINGBOX 18 19 -1 -4
COMMENT "Generated by fontforge, http://fontforge.sourceforge.net"
COMMENT "Copyright (c) 1981, 1982, 1983, 1989 and 1993, Linotype Library GmbH or its affiliated Linotype-Hell companies. All rights reserved."
COMMENT ""
COMMENT "The digitally encoded machine readable software for producing the Typefaces licensed to you is now the property of Heidelberger Druckmaschinen AG and its licensors, and may not be reproduced, used, displayed, modified, disclosed or transferred without the express written approval of Heidelberger"
COMMENT ""
COMMENT "Copyright (c) 1988, 1990, 1993 Adobe Systems Incorporated. All Rights Reserved."
STARTPROPERTIES 39
FOUNDRY "FontForge"
FAMILY_NAME "Helvetica Neue"
WEIGHT_NAME "Bold"
SLANT "R"
SETWIDTH_NAME "Normal"
ADD_STYLE_NAME ""
PIXEL_SIZE 18
POINT_SIZE 170
RESOLUTION_X 75
RESOLUTION_Y 75
SPACING "P"
AVERAGE_WIDTH 96
CHARSET_REGISTRY "ISO10646"
CHARSET_ENCODING "1"
FONTNAME_REGISTRY ""
CHARSET_COLLECTIONS "ISO8859-5 ISO10646-1"
FONT_NAME "HelveticaNeue-Bold"
FACE_NAME "Helvetica Neue Bold"
COPYRIGHT "Copyright (c) 1981, 1982, 1983, 1989 and 1993, Linotype Library GmbH or its affiliated Linotype-Hell companies. All rights reserved."
FONT_VERSION "6.1d8e1"
FONT_ASCENT 14
FONT_DESCENT 4
UNDERLINE_POSITION -2
UNDERLINE_THICKNESS 1
X_HEIGHT 8
CAP_HEIGHT 12
RAW_ASCENT 800
RAW_DESCENT 200
NORM_SPACE 5
RELATIVE_WEIGHT 70
RELATIVE_SETWIDTH 50
SUPERSCRIPT_X 0
SUPERSCRIPT_Y 5
SUPERSCRIPT_SIZE 3
SUBSCRIPT_X 0
SUBSCRIPT_Y 5
SUBSCRIPT_SIZE 3
AVG_LOWERCASE_WIDTH 96
AVG_UPPERCASE_WIDTH 124
ENDPROPERTIES
CHARS 99
STARTCHAR controlBS
ENCODING 8
SWIDTH 0 0
DWIDTH 0 0
BBX 1 1 0 0
BITMAP
00
ENDCHAR
STARTCHAR controlHT
ENCODING 9
SWIDTH 278 0
DWIDTH 5 0
BBX 1 1 0 0
BITMAP
00
ENDCHAR
STARTCHAR controlCR
ENCODING 13
SWIDTH 278 0
DWIDTH 5 0
BBX 1 1 0 0
BITMAP
00
ENDCHAR
STARTCHAR controlGS
ENCODING 29
SWIDTH 0 0
DWIDTH 0 0
BBX 1 1 0 0
BITMAP
00
ENDCHAR
STARTCHAR space
ENCODING 32
SWIDTH 278 0
DWIDTH 5 0
BBX 1 1 0 0
BITMAP
00
ENDCHAR
STARTCHAR exclam
ENCODING 33
SWIDTH 278 0
DWIDTH 5 0
BBX 3 13 1 0
BITMAP
E0
E0
E0
E0
E0
E0
E0
40
40
00
E0
E0
E0
ENDCHAR
STARTCHAR quotedbl
ENCODING 34
SWIDTH 463 0
DWIDTH 8 0
BBX 6 6 1 7
BITMAP
CC
CC
CC
CC
CC
CC
ENDCHAR
STARTCHAR numbersign
ENCODING 35
SWIDTH 556 0
DWIDTH 10 0
BBX 8 13 1 0
BITMAP
33
32
32
36
FF
FF
26
66
FF
FF
6C
6C
4C
ENDCHAR
STARTCHAR dollar
ENCODING 36
SWIDTH 556 0
DWIDTH 9 0
BBX 10 17 0 -2
BITMAP
0800
0800
3E00
7F00
EB80
EB80
E800
FC00
7F80
0F80
09C0
E9C0
E9C0
7F80
7F00
0800
0800
ENDCHAR
STARTCHAR percent
ENCODING 37
SWIDTH 1000 0
DWIDTH 18 0
BBX 16 13 1 0
BITMAP
7818
C830
CC20
CC60
CCC0
C880
799E
0113
0333
0633
0633
0C13
181E
ENDCHAR
STARTCHAR ampersand
ENCODING 38
SWIDTH 685 0
DWIDTH 12 0
BBX 12 13 1 0
BITMAP
3E00
7F00
6300
6300
7700
3E00
7C00
EEC0
C7C0
C780
C7C0
7FC0
3CF0
ENDCHAR
STARTCHAR quotesingle
ENCODING 39
SWIDTH 278 0
DWIDTH 5 0
BBX 2 6 2 7
BITMAP
C0
C0
C0
C0
C0
C0
ENDCHAR
STARTCHAR parenleft
ENCODING 40
SWIDTH 296 0
DWIDTH 5 0
BBX 5 16 1 -3
BITMAP
38
30
70
60
E0
E0
E0
E0
E0
E0
E0
E0
60
70
30
38
ENDCHAR
STARTCHAR parenright
ENCODING 41
SWIDTH 296 0
DWIDTH 6 0
BBX 5 16 0 -3
BITMAP
E0
60
70
30
38
38
38
38
38
38
38
38
30
70
60
E0
ENDCHAR
STARTCHAR asterisk
ENCODING 42
SWIDTH 407 0
DWIDTH 7 0
BBX 7 6 0 7
BITMAP
10
94
7C
9A
28
6C
ENDCHAR
STARTCHAR plus
ENCODING 43
SWIDTH 600 0
DWIDTH 11 0
BBX 10 9 0 0
BITMAP
0C00
0C00
0C00
FFC0
FFC0
0C00
0C00
0C00
0C00
ENDCHAR
STARTCHAR comma
ENCODING 44
SWIDTH 278 0
DWIDTH 5 0
BBX 3 6 1 -3
BITMAP
E0
E0
E0
60
E0
80
ENDCHAR
STARTCHAR hyphen
ENCODING 45
SWIDTH 407 0
DWIDTH 7 0
BBX 5 2 1 4
BITMAP
F8
F8
ENDCHAR
STARTCHAR period
ENCODING 46
SWIDTH 278 0
DWIDTH 5 0
BBX 3 3 1 0
BITMAP
E0
E0
E0
ENDCHAR
STARTCHAR slash
ENCODING 47
SWIDTH 371 0
DWIDTH 7 0
BBX 7 13 0 0
BITMAP
06
0C
0C
1C
18
18
30
30
30
60
60
C0
C0
ENDCHAR
STARTCHAR zero
ENCODING 48
SWIDTH 556 0
DWIDTH 10 0
BBX 9 13 0 0
BITMAP
3E00
7F00
6300
E380
E380
E380
E380
E380
E380
E380
6300
7F00
3E00
ENDCHAR
STARTCHAR one
ENCODING 49
SWIDTH 556 0
DWIDTH 10 0
BBX 6 13 1 0
BITMAP
0C
1C
3C
FC
FC
1C
1C
1C
1C
1C
1C
1C
1C
ENDCHAR
STARTCHAR two
ENCODING 50
SWIDTH 556 0
DWIDTH 10 0
BBX 9 13 0 0
BITMAP
1E00
3F00
7380
6380
6380
0380
0700
1F00
3C00
7800
F000
FF80
FF80
ENDCHAR
STARTCHAR three
ENCODING 51
SWIDTH 556 0
DWIDTH 11 0
BBX 9 13 1 0
BITMAP
3E00
7F00
E180
C180
0180
0700
0700
0180
0380
C380
E380
7F00
3E00
ENDCHAR
STARTCHAR four
ENCODING 52
SWIDTH 556 0
DWIDTH 10 0
BBX 9 13 1 0
BITMAP
0600
0E00
1E00
1E00
3600
7600
E600
C600
FF80
FF80
0600
0600
0600
ENDCHAR
STARTCHAR five
ENCODING 53
SWIDTH 556 0
DWIDTH 11 0
BBX 10 13 0 0
BITMAP
3F80
3F80
3000
7000
7F00
7F80
73C0
01C0
01C0
E1C0
7380
7F80
1E00
ENDCHAR
STARTCHAR six
ENCODING 54
SWIDTH 556 0
DWIDTH 11 0
BBX 10 13 0 0
BITMAP
1F00
3F80
7180
6000
E000
EF00
FF80
F1C0
E1C0
E1C0
71C0
7F80
1F00
ENDCHAR
STARTCHAR seven
ENCODING 55
SWIDTH 556 0
DWIDTH 10 0
BBX 9 12 0 0
BITMAP
FF80
FF80
0380
0700
0600
0E00
0C00
1C00
1C00
3800
3800
3800
ENDCHAR
STARTCHAR eight
ENCODING 56
SWIDTH 556 0
DWIDTH 11 0
BBX 10 13 0 0
BITMAP
1E00
3F00
7180
6180
6180
3F00
7F80
E1C0
E1C0
E1C0
F1C0
7F80
3F00
ENDCHAR
STARTCHAR nine
ENCODING 57
SWIDTH 556 0
DWIDTH 11 0
BBX 10 13 0 0
BITMAP
1E00
7F80
7380
E1C0
E1C0
E1C0
F3C0
7FC0
3DC0
0180
6380
7F00
3E00
ENDCHAR
STARTCHAR colon
ENCODING 58
SWIDTH 278 0
DWIDTH 5 0
BBX 3 9 1 0
BITMAP
E0
E0
E0
00
00
00
E0
E0
E0
ENDCHAR
STARTCHAR semicolon
ENCODING 59
SWIDTH 278 0
DWIDTH 5 0
BBX 3 12 1 -3
BITMAP
E0
E0
E0
00
00
00
E0
E0
E0
60
E0
80
ENDCHAR
STARTCHAR less
ENCODING 60
SWIDTH 600 0
DWIDTH 11 0
BBX 9 9 1 0
BITMAP
0080
0780
3F00
F800
C000
F800
3F00
0780
0080
ENDCHAR
STARTCHAR equal
ENCODING 61
SWIDTH 600 0
DWIDTH 11 0
BBX 9 5 1 2
BITMAP
FF80
FF80
0000
FF80
FF80
ENDCHAR
STARTCHAR greater
ENCODING 62
SWIDTH 600 0
DWIDTH 11 0
BBX 9 9 1 0
BITMAP
8000
F000
7C00
0F80
0380
0F80
7C00
F000
8000
ENDCHAR
STARTCHAR question
ENCODING 63
SWIDTH 556 0
DWIDTH 11 0
BBX 10 13 0 0
BITMAP
3F00
7F80
F1C0
E1C0
01C0
0380
0700
0600
0E00
0000
1C00
1C00
1C00
ENDCHAR
STARTCHAR at
ENCODING 64
SWIDTH 800 0
DWIDTH 15 0
BBX 13 13 1 0
BITMAP
0F80
3860
6010
6F68
DFE8
D9C8
F1C8
F1C8
F390
7FF0
6EC0
3838
0FC0
ENDCHAR
STARTCHAR A
ENCODING 65
SWIDTH 685 0
DWIDTH 12 0
BBX 12 13 0 0
BITMAP
0700
0F00
0F80
1F80
1D80
19C0
39C0
38C0
3FE0
7FE0
7070
E070
E070
ENDCHAR
STARTCHAR B
ENCODING 66
SWIDTH 704 0
DWIDTH 14 0
BBX 12 13 1 0
BITMAP
FF80
FFE0
E0E0
E0E0
E0E0
FFC0
FFE0
E070
E070
E070
E070
FFE0
FFC0
ENDCHAR
STARTCHAR C
ENCODING 67
SWIDTH 741 0
DWIDTH 13 0
BBX 12 13 1 0
BITMAP
0F80
3FE0
70E0
6070
E000
E000
E000
E000
E070
6070
70E0
3FC0
0F80
ENDCHAR
STARTCHAR D
ENCODING 68
SWIDTH 741 0
DWIDTH 13 0
BBX 11 13 1 0
BITMAP
FF00
FF80
E1C0
E0E0
E0E0
E0E0
E0E0
E0E0
E0E0
E0C0
E1C0
FF80
FF00
ENDCHAR
STARTCHAR E
ENCODING 69
SWIDTH 648 0
DWIDTH 12 0
BBX 10 13 1 0
BITMAP
FFC0
FFC0
E000
E000
E000
FF80
FF80
E000
E000
E000
E000
FFC0
FFC0
ENDCHAR
STARTCHAR F
ENCODING 70
SWIDTH 593 0
DWIDTH 11 0
BBX 9 13 1 0
BITMAP
FF80
FF80
E000
E000
E000
E000
FF00
FF00
E000
E000
E000
E000
E000
ENDCHAR
STARTCHAR G
ENCODING 71
SWIDTH 759 0
DWIDTH 14 0
BBX 12 13 1 0
BITMAP
0F80
3FC0
70E0
6070
E000
E000
E3F0
E3F0
E070
6070
70F0
3FF0
0F30
ENDCHAR
STARTCHAR H
ENCODING 72
SWIDTH 741 0
DWIDTH 13 0
BBX 11 13 1 0
BITMAP
E0E0
E0E0
E0E0
E0E0
E0E0
FFE0
FFE0
E0E0
E0E0
E0E0
E0E0
E0E0
E0E0
ENDCHAR
STARTCHAR I
ENCODING 73
SWIDTH 295 0
DWIDTH 5 0
BBX 3 13 1 0
BITMAP
E0
E0
E0
E0
E0
E0
E0
E0
E0
E0
E0
E0
E0
ENDCHAR
STARTCHAR J
ENCODING 74
SWIDTH 556 0
DWIDTH 10 0
BBX 9 13 0 0
BITMAP
0380
0380
0380
0380
0380
0380
0380
0380
E380
E380
E380
7F00
3E00
ENDCHAR
STARTCHAR K
ENCODING 75
SWIDTH 722 0
DWIDTH 13 0
BBX 12 13 1 0
BITMAP
E0F0
E1C0
E380
E700
EE00
FE00
FE00
F700
E780
E3C0
E1C0
E1E0
E0F0
ENDCHAR
STARTCHAR L
ENCODING 76
SWIDTH 593 0
DWIDTH 11 0
BBX 9 13 1 0
BITMAP
E000
E000
E000
E000
E000
E000
E000
E000
E000
E000
E000
FF80
FF80
ENDCHAR
STARTCHAR M
ENCODING 77
SWIDTH 907 0
DWIDTH 16 0
BBX 14 13 1 0
BITMAP
F03C
F87C
F87C
F87C
FC7C
ECDC
ECDC
EEDC
E79C
E79C
E79C
E71C
E31C
ENDCHAR
STARTCHAR N
ENCODING 78
SWIDTH 741 0
DWIDTH 13 0
BBX 11 13 1 0
BITMAP
E0E0
F0E0
F0E0
F8E0
F8E0
ECE0
EEE0
E6E0
E3E0
E3E0
E1E0
E1E0
E0E0
ENDCHAR
STARTCHAR O
ENCODING 79
SWIDTH 778 0
DWIDTH 14 0
BBX 12 13 1 0
BITMAP
1F80
3FC0
70E0
6060
E070
E070
E070
E070
E070
6060
70E0
3FC0
1F80
ENDCHAR
STARTCHAR P
ENCODING 80
SWIDTH 667 0
DWIDTH 12 0
BBX 10 13 1 0
BITMAP
FF00
FF80
E1C0
E1C0
E1C0
E1C0
FF80
FF00
E000
E000
E000
E000
E000
ENDCHAR
STARTCHAR Q
ENCODING 81
SWIDTH 778 0
DWIDTH 14 0
BBX 12 14 1 -1
BITMAP
1F80
3FC0
70E0
6060
E070
E070
E070
E070
E270
6360
71E0
3FE0
1FF0
0020
ENDCHAR
STARTCHAR R
ENCODING 82
SWIDTH 722 0
DWIDTH 13 0
BBX 11 13 1 0
BITMAP
FF80
FFC0
E0E0
E0E0
E0E0
E0E0
FFC0
FFC0
E1E0
E0E0
E0E0
E0E0
E0E0
ENDCHAR
STARTCHAR S
ENCODING 83
SWIDTH 649 0
DWIDTH 12 0
BBX 11 13 0 0
BITMAP
1F00
7FC0
E1E0
E0E0
F000
7F00
3FC0
07E0
00E0
E0E0
F0E0
7FC0
1F80
ENDCHAR
STARTCHAR T
ENCODING 84
SWIDTH 611 0
DWIDTH 11 0
BBX 11 13 0 0
BITMAP
FFE0
FFE0
0E00
0E00
0E00
0E00
0E00
0E00
0E00
0E00
0E00
0E00
0E00
ENDCHAR
STARTCHAR U
ENCODING 85
SWIDTH 741 0
DWIDTH 13 0
BBX 11 13 1 0
BITMAP
E0E0
E0E0
E0E0
E0E0
E0E0
E0E0
E0E0
E0E0
E0E0
E0E0
71C0
7FC0
1F00
ENDCHAR
STARTCHAR V
ENCODING 86
SWIDTH 630 0
DWIDTH 11 0
BBX 11 13 0 0
BITMAP
E0E0
E0E0
70E0
71C0
71C0
31C0
3980
3B80
1B80
1F00
1F00
0F00
0E00
ENDCHAR
STARTCHAR W
ENCODING 87
SWIDTH 944 0
DWIDTH 17 0
BBX 17 13 0 0
BITMAP
E1C380
E1C380
61C300
73E700
736700
736600
336600
3F7E00
3E3E00
1E3C00
1E3C00
1E3C00
1C1C00
ENDCHAR
STARTCHAR X
ENCODING 88
SWIDTH 667 0
DWIDTH 12 0
BBX 12 13 0 0
BITMAP
F0F0
70E0
39C0
1F80
1F80
0F00
0F00
0F00
1F80
39C0
39C0
70E0
E0F0
ENDCHAR
STARTCHAR Y
ENCODING 89
SWIDTH 667 0
DWIDTH 12 0
BBX 13 13 -1 0
BITMAP
F078
7070
38E0
3CE0
1DC0
0FC0
0F80
0700
0700
0700
0700
0700
0700
ENDCHAR
STARTCHAR Z
ENCODING 90
SWIDTH 648 0
DWIDTH 12 0
BBX 11 13 0 0
BITMAP
7FE0
7FE0
01E0
03C0
0780
0780
0F00
1E00
3C00
7800
7800
FFE0
FFE0
ENDCHAR
STARTCHAR bracketleft
ENCODING 91
SWIDTH 333 0
DWIDTH 6 0
BBX 5 16 1 -3
BITMAP
F8
F8
E0
E0
E0
E0
E0
E0
E0
E0
E0
E0
E0
E0
F8
F8
ENDCHAR
STARTCHAR backslash
ENCODING 92
SWIDTH 371 0
DWIDTH 7 0
BBX 7 13 0 0
BITMAP
C0
C0
60
60
30
30
30
18
18
1C
0C
0C
06
ENDCHAR
STARTCHAR bracketright
ENCODING 93
SWIDTH 333 0
DWIDTH 6 0
BBX 5 16 0 -3
BITMAP
F8
F8
38
38
38
38
38
38
38
38
38
38
38
38
F8
F8
ENDCHAR
STARTCHAR asciicircum
ENCODING 94
SWIDTH 600 0
DWIDTH 11 0
BBX 9 7 1 6
BITMAP
1C00
1C00
3600
3600
6700
6300
C380
ENDCHAR
STARTCHAR underscore
ENCODING 95
SWIDTH 500 0
DWIDTH 9 0
BBX 9 1 0 -2
BITMAP
FF80
ENDCHAR
STARTCHAR grave
ENCODING 96
SWIDTH 259 0
DWIDTH 5 0
BBX 5 2 -1 11
BITMAP
E0
38
ENDCHAR
STARTCHAR a
ENCODING 97
SWIDTH 574 0
DWIDTH 11 0
BBX 10 10 0 0
BITMAP
3F00
7FC0
E1C0
01C0
1FC0
71C0
E1C0
E3C0
FFC0
7C40
ENDCHAR
STARTCHAR b
ENCODING 98
SWIDTH 611 0
DWIDTH 11 0
BBX 9 13 1 0
BITMAP
C000
C000
C000
DE00
FF00
E780
C380
C380
C380
C380
E780
FF00
DE00
ENDCHAR
STARTCHAR c
ENCODING 99
SWIDTH 574 0
DWIDTH 10 0
BBX 9 10 0 0
BITMAP
1E00
7F00
7380
E180
E000
E000
E180
7380
7F00
1E00
ENDCHAR
STARTCHAR d
ENCODING 100
SWIDTH 611 0
DWIDTH 11 0
BBX 9 13 1 0
BITMAP
0180
0180
0180
3D80
7F80
F380
E180
E180
E180
E180
F380
7F80
3D80
ENDCHAR
STARTCHAR e
ENCODING 101
SWIDTH 574 0
DWIDTH 10 0
BBX 10 10 0 0
BITMAP
1E00
7F00
7180
E180
FFC0
FFC0
E000
71C0
7F80
1F00
ENDCHAR
STARTCHAR f
ENCODING 102
SWIDTH 333 0
DWIDTH 6 0
BBX 7 13 -1 0
BITMAP
1E
3E
38
38
FE
FE
38
38
38
38
38
38
38
ENDCHAR
STARTCHAR g
ENCODING 103
SWIDTH 611 0
DWIDTH 11 0
BBX 9 14 1 -4
BITMAP
3D80
7F80
F380
E180
E180
E180
E180
F380
7F80
3D80
0180
E380
7F00
3E00
ENDCHAR
STARTCHAR h
ENCODING 104
SWIDTH 593 0
DWIDTH 11 0
BBX 9 13 1 0
BITMAP
E000
E000
E000
EF00
FF80
E380
E380
E380
E380
E380
E380
E380
E380
ENDCHAR
STARTCHAR i
ENCODING 105
SWIDTH 258 0
DWIDTH 5 0
BBX 3 13 1 0
BITMAP
E0
E0
00
00
E0
E0
E0
E0
E0
E0
E0
E0
E0
ENDCHAR
STARTCHAR j
ENCODING 106
SWIDTH 278 0
DWIDTH 5 0
BBX 5 16 -1 -3
BITMAP
38
38
00
38
38
38
38
38
38
38
38
38
38
38
F8
F0
ENDCHAR
STARTCHAR k
ENCODING 107
SWIDTH 574 0
DWIDTH 10 0
BBX 10 13 1 0
BITMAP
E000
E000
E000
E000
E780
EE00
FC00
FC00
FE00
EE00
E700
E380
E3C0
ENDCHAR
STARTCHAR l
ENCODING 108
SWIDTH 258 0
DWIDTH 5 0
BBX 3 13 1 0
BITMAP
E0
E0
E0
E0
E0
E0
E0
E0
E0
E0
E0
E0
E0
ENDCHAR
STARTCHAR m
ENCODING 109
SWIDTH 906 0
DWIDTH 16 0
BBX 14 10 1 0
BITMAP
DF78
FFFC
F39C
E39C
E39C
E39C
E39C
E39C
E39C
E39C
ENDCHAR
STARTCHAR n
ENCODING 110
SWIDTH 593 0
DWIDTH 11 0
BBX 9 10 1 0
BITMAP
DF00
FF80
E380
C380
C380
C380
C380
C380
C380
C380
ENDCHAR
STARTCHAR o
ENCODING 111
SWIDTH 611 0
DWIDTH 11 0
BBX 9 10 1 0
BITMAP
3E00
7F00
E380
E380
E380
E380
E380
E380
7F00
3E00
ENDCHAR
STARTCHAR p
ENCODING 112
SWIDTH 611 0
DWIDTH 11 0
BBX 9 13 1 -3
BITMAP
EE00
FF00
F380
E380
E380
E380
E380
F380
FF00
EE00
E000
E000
E000
ENDCHAR
STARTCHAR q
ENCODING 113
SWIDTH 611 0
DWIDTH 11 0
BBX 9 13 1 -3
BITMAP
3D80
7F80
F380
E180
E180
E180
E180
F380
7F80
3D80
0180
0180
0180
ENDCHAR
STARTCHAR r
ENCODING 114
SWIDTH 444 0
DWIDTH 8 0
BBX 6 10 1 0
BITMAP
CC
DC
FC
E0
C0
C0
C0
C0
C0
C0
ENDCHAR
STARTCHAR s
ENCODING 115
SWIDTH 537 0
DWIDTH 10 0
BBX 9 10 1 0
BITMAP
7C00
FF00
E300
E000
7E00
1F80
0380
C380
FF80
3E00
ENDCHAR
STARTCHAR t
ENCODING 116
SWIDTH 352 0
DWIDTH 6 0
BBX 7 12 -1 0
BITMAP
38
38
38
FE
FE
38
38
38
38
38
3E
1E
ENDCHAR
STARTCHAR u
ENCODING 117
SWIDTH 593 0
DWIDTH 11 0
BBX 9 9 1 0
BITMAP
E380
E380
E380
E380
E380
E380
E380
FF80
7B80
ENDCHAR
STARTCHAR v
ENCODING 118
SWIDTH 520 0
DWIDTH 9 0
BBX 9 9 0 0
BITMAP
E180
6380
7300
7300
3700
3E00
3E00
1E00
1C00
ENDCHAR
STARTCHAR w
ENCODING 119
SWIDTH 814 0
DWIDTH 15 0
BBX 15 9 0 0
BITMAP
E38E
639C
779C
77D8
36D8
36F8
3CF0
1C70
1C70
ENDCHAR
STARTCHAR x
ENCODING 120
SWIDTH 537 0
DWIDTH 10 0
BBX 10 9 0 0
BITMAP
F380
7700
3E00
1E00
1C00
3E00
3F00
7380
E3C0
ENDCHAR
STARTCHAR y
ENCODING 121
SWIDTH 519 0
DWIDTH 9 0
BBX 9 12 0 -3
BITMAP
E180
E380
6300
7300
3700
3E00
3E00
1E00
1C00
1C00
7800
7000
ENDCHAR
STARTCHAR z
ENCODING 122
SWIDTH 519 0
DWIDTH 9 0
BBX 9 9 0 0
BITMAP
7F80
7F80
0700
0E00
1C00
3800
7000
FF80
FF80
ENDCHAR
STARTCHAR braceleft
ENCODING 123
SWIDTH 333 0
DWIDTH 6 0
BBX 7 16 -1 -3
BITMAP
1E
3E
38
38
38
38
38
F0
F0
38
38
38
38
38
3E
1E
ENDCHAR
STARTCHAR bar
ENCODING 124
SWIDTH 223 0
DWIDTH 4 0
BBX 2 18 1 -4
BITMAP
C0
C0
C0
C0
C0
C0
C0
C0
C0
C0
C0
C0
C0
C0
C0
C0
C0
C0
ENDCHAR
STARTCHAR braceright
ENCODING 125
SWIDTH 333 0
DWIDTH 7 0
BBX 7 16 0 -3
BITMAP
F0
F8
38
38
38
38
38
1E
1E
38
38
38
38
38
F8
F0
ENDCHAR
STARTCHAR asciitilde
ENCODING 126
SWIDTH 600 0
DWIDTH 11 0
BBX 9 3 1 3
BITMAP
7900
FF80
8F00
ENDCHAR
ENDFONT
